<svg xmlns="http://www.w3.org/2000/svg" xmlns:xlink="http://www.w3.org/1999/xlink" width="500" zoomAndPan="magnify" viewBox="0 0 375 374.999991" height="500" preserveAspectRatio="xMidYMid meet" version="1.0"><defs><g/><clipPath id="729ec2d125"><path d="M 81.582031 123 L 112 123 L 112 213 L 81.582031 213 Z M 81.582031 123 " clip-rule="nonzero"/></clipPath><clipPath id="c2ad47d985"><path d="M 136 37.5 L 293.082031 37.5 L 293.082031 226.5 L 136 226.5 Z M 136 37.5 " clip-rule="nonzero"/></clipPath><clipPath id="cd7608dc71"><path d="M 133.5 110 L 161 110 L 161 142 L 133.5 142 Z M 133.5 110 " clip-rule="nonzero"/></clipPath><clipPath id="bc11912331"><path d="M 189 80.152344 L 215 80.152344 L 215 113 L 189 113 Z M 189 80.152344 " clip-rule="nonzero"/></clipPath><clipPath id="ca1fe044bc"><path d="M 134.40625 103.253906 L 241.414062 103.253906 L 241.414062 230.140625 L 134.40625 230.140625 Z M 134.40625 103.253906 " clip-rule="nonzero"/></clipPath></defs><path fill="#000000" d="M 173.136719 84.535156 L 174.800781 82.320312 L 173.691406 80.65625 L 172.027344 77.324219 L 173.136719 74.554688 L 170.917969 72.890625 L 168.703125 73.996094 L 167.589844 76.21875 L 167.589844 76.773438 L 168.703125 77.324219 L 168.144531 78.992188 L 169.253906 80.65625 L 168.144531 82.320312 L 165.925781 83.429688 L 167.589844 85.09375 L 173.136719 84.535156 " fill-opacity="1" fill-rule="nonzero"/><path fill="#000000" d="M 101.582031 83.984375 L 106.015625 78.992188 L 111.011719 76.773438 L 113.230469 77.882812 L 117.667969 77.882812 L 121.550781 79.542969 L 124.878906 76.773438 L 124.878906 71.78125 L 128.207031 69.5625 L 129.871094 65.121094 L 134.863281 60.6875 L 133.753906 57.910156 L 135.972656 55.691406 L 134.863281 54.582031 L 129.316406 57.359375 L 124.878906 59.574219 L 125.777344 57.328125 C 114.785156 65.222656 105.363281 75.167969 98.082031 86.609375 L 101.582031 83.984375 " fill-opacity="1" fill-rule="nonzero"/><path fill="#000000" d="M 85.863281 113.511719 L 86.605469 113.9375 L 87.160156 116.710938 L 89.378906 117.265625 L 87.160156 111.164062 L 87.445312 108.570312 C 86.878906 110.203125 86.351562 111.847656 85.863281 113.511719 " fill-opacity="1" fill-rule="nonzero"/><g clip-path="url(#729ec2d125)"><path fill="#000000" d="M 106.574219 207.683594 L 104.355469 202.136719 L 103.800781 198.25 L 107.679688 199.363281 L 108.792969 194.367188 L 107.128906 187.15625 L 106.015625 186.046875 L 108.238281 184.386719 L 111.011719 178.835938 L 110.457031 173.289062 L 107.679688 171.070312 L 102.691406 164.96875 L 100.46875 162.75 L 94.371094 158.316406 L 92.707031 156.648438 L 92.707031 147.222656 L 91.042969 145.558594 L 88.824219 142.226562 L 87.714844 141.117188 L 86.605469 135.015625 L 87.160156 129.472656 L 84.382812 128.914062 L 84.382812 125.03125 L 83.386719 123.867188 C 82.203125 130.191406 81.582031 136.710938 81.582031 143.378906 C 81.582031 169.742188 91.21875 193.847656 107.160156 212.375 L 106.574219 207.683594 " fill-opacity="1" fill-rule="nonzero"/></g><path fill="#000000" d="M 138.746094 50.699219 L 137.082031 53.476562 L 136.523438 56.804688 L 138.746094 56.804688 L 142.628906 55.691406 L 147.621094 53.476562 L 151.503906 48.480469 L 155.941406 46.265625 L 158.714844 45.707031 L 160.378906 46.265625 L 158.714844 48.480469 L 153.722656 51.8125 L 149.839844 55.691406 L 145.957031 55.140625 L 142.628906 60.128906 L 141.519531 64.570312 L 144.292969 64.570312 L 147.066406 61.792969 L 152.058594 59.574219 L 156.496094 59.574219 L 158.714844 58.46875 L 167.035156 58.46875 L 167.035156 56.246094 L 170.367188 54.582031 L 171.472656 52.917969 L 174.800781 50.699219 L 177.578125 47.929688 L 173.136719 43.488281 L 169.808594 43.488281 L 166.484375 41.824219 L 164.953125 39.917969 C 154.765625 42.121094 145.121094 45.792969 136.257812 50.699219 L 138.746094 50.699219 " fill-opacity="1" fill-rule="nonzero"/><path fill="#000000" d="M 166.484375 64.570312 L 167.589844 62.902344 L 164.261719 61.792969 L 160.378906 61.792969 L 160.378906 64.015625 L 164.261719 65.679688 L 166.484375 64.570312 " fill-opacity="1" fill-rule="nonzero"/><path fill="#000000" d="M 167.589844 80.65625 L 166.484375 78.4375 L 164.816406 77.324219 L 162.042969 79.542969 L 160.933594 83.429688 L 164.816406 82.320312 L 167.589844 80.65625 " fill-opacity="1" fill-rule="nonzero"/><path fill="#000000" d="M 208.636719 110.609375 L 206.421875 110.054688 L 204.203125 111.164062 L 206.972656 111.71875 L 208.636719 110.609375 " fill-opacity="1" fill-rule="nonzero"/><path fill="#000000" d="M 275.757812 145 L 274.652344 147.773438 L 276.867188 152.210938 L 277.976562 151.105469 L 278.535156 147.773438 L 276.867188 147.773438 L 276.867188 146.109375 L 275.757812 145 " fill-opacity="1" fill-rule="nonzero"/><path fill="#000000" d="M 243.585938 204.355469 L 245.804688 199.914062 L 249.132812 196.035156 L 249.132812 191.039062 L 250.242188 189.375 L 248.578125 188.269531 L 245.25 193.816406 L 240.808594 195.480469 L 239.148438 201.027344 L 236.929688 204.910156 L 236.375 207.125 L 236.929688 210.457031 L 240.257812 209.34375 L 243.585938 204.355469 " fill-opacity="1" fill-rule="nonzero"/><g clip-path="url(#c2ad47d985)"><path fill="#000000" d="M 238.039062 101.734375 L 235.265625 97.292969 L 231.933594 93.414062 L 229.71875 90.640625 L 229.71875 87.867188 L 231.933594 86.203125 L 232.492188 88.976562 L 234.710938 91.746094 L 235.265625 94.523438 L 239.148438 96.1875 L 239.703125 100.070312 Z M 223.058594 98.957031 L 218.625 97.292969 L 215.296875 97.292969 L 213.632812 99.515625 L 209.191406 99.515625 L 207.53125 97.851562 L 208.085938 93.96875 L 210.859375 90.082031 L 211.96875 90.640625 L 212.523438 91.746094 L 211.96875 93.96875 L 214.742188 93.96875 L 216.40625 92.859375 L 215.296875 90.640625 L 217.511719 88.976562 L 218.625 91.746094 L 219.734375 93.96875 L 223.617188 94.523438 L 226.386719 97.851562 Z M 225.28125 171.625 L 226.941406 172.738281 L 226.941406 173.289062 L 225.835938 174.953125 L 225.835938 176.617188 L 223.617188 178.28125 L 222.507812 175.511719 L 223.058594 173.289062 Z M 187.445312 37.515625 C 180.921875 37.515625 174.535156 38.109375 168.332031 39.238281 L 169.808594 40.71875 L 173.136719 42.378906 L 177.578125 45.152344 L 180.902344 47.929688 L 186.453125 48.480469 L 184.234375 49.59375 L 188.117188 53.476562 L 189.78125 52.363281 L 189.78125 49.59375 L 192 47.929688 L 193.664062 48.480469 L 197.546875 48.480469 L 198.65625 47.371094 L 198.65625 44.601562 L 206.421875 44.042969 L 208.636719 46.265625 L 212.523438 48.480469 L 212.523438 52.363281 L 211.96875 56.246094 L 207.53125 58.46875 L 205.308594 61.792969 L 202.539062 60.128906 L 196.992188 57.359375 L 190.886719 57.910156 L 187.003906 61.792969 L 185.339844 66.234375 L 181.457031 67.34375 L 179.792969 71.226562 L 180.347656 75.109375 L 183.125 76.21875 L 184.234375 74.554688 L 186.453125 75.660156 L 188.667969 77.882812 L 190.886719 77.324219 L 191.441406 73.996094 L 192.550781 70.667969 L 190.886719 67.898438 L 192 65.121094 L 194.214844 63.457031 L 195.328125 65.679688 L 194.214844 70.113281 L 196.992188 71.78125 L 197.546875 73.996094 L 195.328125 77.882812 L 192.550781 79.542969 L 188.117188 80.101562 L 186.453125 77.882812 L 184.789062 76.773438 L 182.011719 77.324219 L 182.011719 80.65625 L 178.683594 81.207031 L 175.914062 83.429688 L 173.136719 86.203125 L 168.703125 87.3125 L 168.703125 95.078125 L 162.597656 95.632812 L 159.824219 94.523438 L 157.609375 97.851562 L 156.496094 104.507812 L 157.050781 107.28125 L 161.492188 107.835938 L 167.035156 107.28125 L 170.367188 104.507812 L 172.027344 100.070312 L 174.246094 98.40625 L 174.800781 96.1875 L 177.578125 96.742188 L 179.792969 98.40625 L 184.234375 96.742188 L 188.117188 99.515625 L 190.886719 104.507812 L 189.222656 105.0625 L 187.003906 106.167969 L 188.667969 107.835938 L 191.441406 108.945312 L 193.109375 107.28125 L 194.214844 105.617188 L 194.773438 102.84375 L 190.886719 97.292969 L 189.78125 95.078125 L 193.664062 96.742188 L 197.546875 98.957031 L 197.546875 101.734375 L 200.316406 104.507812 L 200.875 107.28125 L 203.089844 108.945312 L 204.757812 105.617188 L 203.648438 103.953125 L 203.648438 100.625 L 206.421875 101.179688 L 207.53125 104.507812 L 208.636719 107.28125 L 211.96875 107.28125 L 212.523438 108.945312 L 215.296875 108.390625 L 218.066406 110.054688 L 219.179688 108.945312 L 218.066406 107.28125 L 220.289062 105.617188 L 221.398438 108.390625 L 221.398438 115.046875 L 219.179688 116.15625 L 215.296875 116.710938 L 207.53125 116.15625 L 204.757812 114.492188 L 201.425781 113.9375 L 199.210938 116.710938 L 198.097656 119.484375 L 195.328125 117.820312 L 191.441406 113.382812 L 186.453125 113.9375 L 186.453125 110.609375 L 185.339844 107.28125 L 171.472656 106.726562 L 168.144531 108.390625 L 162.042969 109.5 L 158.714844 110.609375 L 154.832031 112.828125 L 151.503906 116.710938 L 150.394531 119.484375 L 145.398438 121.148438 L 139.300781 128.359375 L 139.859375 132.242188 L 138.1875 136.125 L 136.523438 141.671875 L 136.523438 148.886719 L 140.410156 153.875 L 144.292969 161.085938 L 148.175781 164.96875 L 158.714844 166.078125 L 167.035156 165.527344 L 170.367188 163.308594 L 173.691406 164.414062 L 174.800781 167.191406 L 182.011719 167.742188 L 183.125 171.070312 L 181.457031 176.066406 L 184.234375 182.164062 L 189.222656 187.710938 L 189.222656 192.152344 L 188.117188 197.144531 L 186.453125 202.691406 L 187.558594 207.683594 L 190.335938 210.457031 L 191.441406 216.558594 L 193.109375 218.777344 L 195.328125 222.660156 L 195.878906 225.988281 L 201.984375 226.542969 L 204.757812 224.324219 L 210.300781 224.324219 L 214.742188 223.210938 L 218.066406 217.113281 L 221.398438 213.785156 L 224.171875 211.011719 L 225.28125 205.460938 L 228.054688 202.691406 L 235.265625 198.808594 L 236.375 193.261719 L 236.375 181.613281 L 237.480469 175.511719 L 241.367188 171.625 L 248.578125 161.644531 L 251.351562 155.539062 L 251.351562 145.558594 L 249.6875 145 L 247.46875 147.222656 L 240.257812 149.4375 L 236.929688 144.445312 L 230.828125 138.34375 L 226.386719 128.359375 L 223.058594 122.261719 L 224.171875 121.703125 L 226.386719 123.921875 L 229.71875 128.914062 L 235.265625 137.789062 L 239.703125 140.5625 L 239.703125 146.109375 L 241.367188 146.664062 L 245.804688 142.78125 L 249.132812 140.5625 L 253.015625 135.570312 L 255.230469 130.578125 L 256.902344 123.921875 L 255.789062 121.148438 L 253.566406 120.039062 L 251.90625 117.820312 L 250.242188 122.8125 L 246.914062 122.261719 L 244.691406 119.484375 L 239.703125 115.601562 L 239.703125 111.71875 L 241.921875 112.828125 L 244.140625 116.15625 L 248.023438 117.820312 L 249.132812 119.484375 L 252.460938 116.710938 L 256.902344 118.929688 L 260.226562 116.710938 L 264.664062 117.265625 L 267.992188 120.59375 L 271.320312 121.703125 L 273.539062 125.585938 L 275.203125 132.242188 L 278.535156 136.683594 L 279.085938 140.5625 L 281.859375 142.226562 L 284.078125 141.117188 L 281.304688 134.460938 L 280.199219 127.804688 L 279.640625 119.484375 L 279.640625 111.164062 L 281.304688 111.164062 L 282.96875 115.601562 L 285.746094 120.039062 L 285.746094 124.476562 L 291.25 127.6875 C 291.109375 127.980469 293.3125 145.945312 293.3125 143.378906 C 293.3125 84.914062 245.910156 37.515625 187.445312 37.515625 " fill-opacity="1" fill-rule="nonzero"/></g><g clip-path="url(#cd7608dc71)"><path fill="#416637" d="M 140.269531 132.746094 L 145.351562 137.980469 C 145.535156 138.132812 145.714844 138.285156 145.898438 138.433594 C 149.644531 141.445312 152.738281 142.289062 155.632812 141.082031 C 158.113281 140.050781 159.554688 138.460938 159.917969 136.359375 C 160.152344 134.992188 159.859375 133.800781 159.753906 133.4375 C 158.644531 131.65625 157.058594 129.292969 155.382812 126.800781 C 151.445312 120.949219 147.03125 114.382812 145.644531 110.777344 C 145.242188 110.601562 144.535156 110.351562 143.609375 110.246094 C 143.300781 110.207031 142.992188 110.191406 142.683594 110.191406 C 141.050781 110.191406 139.414062 110.691406 137.800781 111.679688 C 135.730469 112.957031 134.53125 114.820312 134.023438 117.554688 C 133.570312 119.996094 133.769531 122.75 133.960938 125.039062 C 135.925781 127.609375 137.953125 130.191406 139.972656 132.519531 C 140.082031 132.578125 140.179688 132.652344 140.269531 132.746094 " fill-opacity="1" fill-rule="nonzero"/></g><path fill="#416637" d="M 173.390625 109.550781 C 174.09375 111.832031 174.890625 114.421875 175.871094 117.5 L 175.960938 117.777344 C 177.726562 123.308594 179.007812 127.324219 180.242188 129.855469 C 181.535156 132.496094 182.613281 133.203125 183.835938 133.453125 C 185.628906 133.820312 188.355469 133.527344 190.613281 132.726562 C 193.359375 131.75 194.507812 130.449219 194.984375 129.480469 C 194.015625 128.492188 193.222656 127.394531 192.636719 126.203125 C 191.128906 123.136719 190.84375 120.347656 191.785156 117.90625 C 192.261719 116.664062 193.035156 115.527344 194.128906 114.46875 C 192.785156 100.164062 190.730469 92.402344 187.289062 88.539062 C 186.304688 87.949219 184.773438 87.601562 182.949219 87.558594 C 180.960938 87.511719 178.695312 87.835938 176.566406 88.46875 C 174.582031 89.058594 172.558594 90.453125 171.023438 92.292969 C 169.636719 93.957031 168.859375 95.773438 168.910156 97.214844 C 170.449219 99.996094 171.507812 103.4375 173.390625 109.550781 " fill-opacity="1" fill-rule="nonzero"/><path fill="#416637" d="M 162.015625 132.144531 C 163.820312 135.046875 165.429688 136.839844 167.070312 137.789062 C 168.652344 138.699219 170.34375 138.878906 172.550781 138.367188 C 175.421875 137.699219 178.761719 136.085938 178.554688 132.1875 C 178.347656 131.828125 178.144531 131.445312 177.941406 131.035156 C 176.621094 128.328125 175.386719 124.445312 173.523438 118.589844 L 173.4375 118.3125 C 172.453125 115.21875 171.65625 112.621094 170.957031 110.332031 C 169.160156 104.480469 168.136719 101.148438 166.765625 98.609375 C 166.238281 98.398438 165.136719 98.007812 163.6875 97.773438 C 160.996094 97.335938 158.433594 97.617188 156.070312 98.609375 C 150.921875 100.769531 148.335938 104.273438 147.957031 109.636719 C 149.128906 112.871094 153.753906 119.734375 157.503906 125.300781 C 159.238281 127.875 160.875 130.308594 162.015625 132.144531 " fill-opacity="1" fill-rule="nonzero"/><g clip-path="url(#bc11912331)"><path fill="#416637" d="M 203.054688 109.4375 C 203.0625 109.433594 203.070312 109.429688 203.078125 109.429688 C 207.246094 107.953125 211.671875 106.164062 214.046875 105.136719 C 212.976562 95.523438 210.75 88.613281 207.421875 84.546875 C 205.230469 81.871094 202.601562 80.464844 199.382812 80.242188 C 196.21875 80.140625 193.117188 81.386719 191.078125 83.574219 C 190.015625 84.714844 189.390625 85.984375 189.351562 87.050781 C 192.980469 91.277344 195.101562 98.796875 196.511719 112.601562 C 198.199219 111.503906 200.34375 110.464844 203.054688 109.4375 " fill-opacity="1" fill-rule="nonzero"/></g><g clip-path="url(#ca1fe044bc)"><path fill="#416637" d="M 138.617188 155.222656 C 142.171875 161.292969 149.625 174.023438 155.957031 180.789062 C 159.886719 184.984375 162.21875 188.074219 163.75 191.117188 C 165.382812 194.363281 166.195312 197.765625 166.386719 202.15625 C 166.386719 202.160156 166.386719 202.164062 166.386719 202.171875 C 166.527344 206.453125 166.558594 213.65625 166.257812 225.871094 C 178.730469 232.273438 210.390625 231.152344 221.40625 224.644531 C 220.269531 210.53125 219.347656 198.535156 219.121094 194.144531 C 218.457031 181.324219 219.742188 176.101562 224.371094 169.722656 C 227.03125 166.796875 230.59375 162.476562 235.527344 155.171875 C 243.945312 142.710938 241.902344 136.019531 238.222656 123.964844 C 238.105469 123.570312 237.984375 123.171875 237.859375 122.769531 C 233.96875 109.976562 233.117188 108.792969 230.136719 105.828125 C 227.09375 102.804688 223.382812 102.785156 221.214844 104.046875 C 220.511719 104.457031 219.785156 104.910156 219.085938 105.34375 C 217.777344 106.15625 216.644531 106.859375 215.882812 107.15625 C 215.855469 107.167969 215.828125 107.175781 215.800781 107.183594 C 213.644531 108.152344 208.632812 110.203125 203.949219 111.863281 C 200.574219 113.148438 198.105469 114.457031 196.449219 115.855469 C 196.359375 115.960938 196.253906 116.054688 196.136719 116.128906 C 195.183594 116.996094 194.535156 117.898438 194.164062 118.855469 C 193.492188 120.609375 193.742188 122.628906 194.925781 125.03125 C 195.976562 127.164062 197.917969 128.984375 200.53125 130.296875 C 203.113281 131.59375 206.226562 132.34375 209.539062 132.46875 C 213.527344 132.617188 217.449219 131.855469 220.875 130.265625 C 224.59375 128.539062 227.554688 125.871094 229.433594 122.558594 C 229.492188 122.457031 229.5625 122.367188 229.640625 122.289062 C 229.71875 122.878906 229.78125 123.40625 229.816406 123.890625 C 229.816406 125.132812 229.515625 126.828125 228.21875 128.367188 C 227.195312 129.375 226.054688 130.285156 224.816406 131.089844 C 224.816406 131.089844 224.816406 131.089844 224.8125 131.09375 C 221.921875 132.902344 222.535156 138.199219 229.148438 141.382812 C 229.171875 141.394531 229.195312 141.402344 229.214844 141.414062 C 229.144531 141.4375 229.066406 141.457031 228.988281 141.46875 C 228.355469 141.558594 227.726562 141.605469 227.105469 141.605469 C 224.816406 141.605469 222.636719 140.992188 220.71875 139.800781 C 218.648438 138.511719 217.019531 136.597656 216.234375 134.542969 C 214.386719 134.925781 212.472656 135.121094 210.542969 135.121094 C 210.183594 135.121094 209.828125 135.117188 209.464844 135.101562 C 206.0625 134.972656 202.921875 134.257812 200.242188 133.054688 L 200.195312 133.078125 C 193.027344 137 187.398438 148.816406 187.820312 154.023438 C 185.957031 148.5 182.824219 144.679688 178.867188 142.8125 C 173.652344 140.539062 169.160156 142.183594 164.789062 143.867188 C 164.597656 143.953125 164.410156 144.039062 164.21875 144.125 L 164.214844 144.125 C 161.703125 145.117188 157.179688 146.90625 152.75 145.988281 C 149.085938 144.875 146.511719 142.539062 143.625 139.984375 L 143.589844 139.949219 C 143.503906 139.875 143.417969 139.800781 143.332031 139.722656 C 143.285156 139.683594 143.234375 139.640625 143.1875 139.597656 C 140.300781 137.046875 137.339844 133.589844 134.464844 129.957031 C 134.527344 130.503906 134.59375 131.042969 134.660156 131.578125 C 134.953125 133.992188 135.230469 136.277344 135.332031 138.660156 C 135.363281 139.464844 135.367188 140.335938 135.371094 141.261719 C 135.386719 145.046875 135.40625 149.773438 137.632812 153.539062 C 137.914062 154.019531 138.242188 154.582031 138.617188 155.222656 " fill-opacity="1" fill-rule="nonzero"/></g><g fill="#416637" fill-opacity="1"><g transform="translate(98.503613, 260.812804)"><g><path d="M 10.296875 0.234375 C 8.265625 0.234375 6.582031 -0.125 5.25 -0.84375 C 3.914062 -1.5625 2.914062 -2.5625 2.25 -3.84375 C 1.59375 -5.132812 1.265625 -6.644531 1.265625 -8.375 C 1.265625 -10.0625 1.609375 -11.546875 2.296875 -12.828125 C 2.984375 -14.117188 4.003906 -15.125 5.359375 -15.84375 C 6.710938 -16.570312 8.390625 -16.9375 10.390625 -16.9375 C 12.472656 -16.9375 14.046875 -16.660156 15.109375 -16.109375 C 16.179688 -15.566406 16.71875 -14.914062 16.71875 -14.15625 C 16.71875 -13.570312 16.425781 -13.050781 15.84375 -12.59375 C 15.257812 -12.132812 14.34375 -11.90625 13.09375 -11.90625 C 13.09375 -13.132812 12.984375 -14.09375 12.765625 -14.78125 C 12.546875 -15.476562 12.234375 -15.972656 11.828125 -16.265625 C 11.429688 -16.554688 10.9375 -16.703125 10.34375 -16.703125 C 8.820312 -16.703125 7.742188 -16.046875 7.109375 -14.734375 C 6.484375 -13.421875 6.171875 -11.300781 6.171875 -8.375 C 6.171875 -6.394531 6.316406 -4.785156 6.609375 -3.546875 C 6.898438 -2.316406 7.367188 -1.414062 8.015625 -0.84375 C 8.660156 -0.28125 9.53125 0 10.625 0 C 10.789062 0 10.972656 -0.00390625 11.171875 -0.015625 C 11.367188 -0.0351562 11.570312 -0.0625 11.78125 -0.09375 L 11.78125 -6.015625 C 11.78125 -6.585938 11.679688 -7.015625 11.484375 -7.296875 C 11.285156 -7.578125 10.894531 -7.71875 10.3125 -7.71875 L 9.875 -7.71875 L 9.875 -7.953125 L 17.890625 -7.953125 L 17.890625 -7.71875 L 17.6875 -7.71875 C 17.1875 -7.71875 16.859375 -7.570312 16.703125 -7.28125 C 16.546875 -7 16.46875 -6.546875 16.46875 -5.921875 L 16.46875 -1.171875 C 15.46875 -0.703125 14.457031 -0.347656 13.4375 -0.109375 C 12.425781 0.117188 11.378906 0.234375 10.296875 0.234375 Z M 10.296875 0.234375 "/></g></g></g><g fill="#416637" fill-opacity="1"><g transform="translate(117.791275, 260.812804)"><g><path d="M 0.234375 0 L 0.234375 -0.234375 L 0.34375 -0.234375 C 0.875 -0.234375 1.285156 -0.328125 1.578125 -0.515625 C 1.867188 -0.710938 2.015625 -1.179688 2.015625 -1.921875 L 2.015625 -10.71875 C 2.015625 -11.394531 1.894531 -11.828125 1.65625 -12.015625 C 1.425781 -12.203125 1.050781 -12.296875 0.53125 -12.296875 L 0.4375 -12.296875 L 0.4375 -12.53125 L 6.546875 -12.53125 L 6.546875 -10.171875 L 6.59375 -10.171875 C 6.832031 -11.046875 7.25 -11.707031 7.84375 -12.15625 C 8.445312 -12.613281 9.1875 -12.84375 10.0625 -12.84375 C 10.945312 -12.84375 11.617188 -12.628906 12.078125 -12.203125 C 12.535156 -11.773438 12.765625 -11.222656 12.765625 -10.546875 C 12.765625 -9.753906 12.453125 -9.144531 11.828125 -8.71875 C 11.210938 -8.300781 10.363281 -8.09375 9.28125 -8.09375 C 9.28125 -9.375 9.195312 -10.265625 9.03125 -10.765625 C 8.875 -11.273438 8.578125 -11.53125 8.140625 -11.53125 C 7.597656 -11.53125 7.203125 -11.179688 6.953125 -10.484375 C 6.703125 -9.796875 6.578125 -8.78125 6.578125 -7.4375 L 6.578125 -1.796875 C 6.578125 -1.109375 6.703125 -0.675781 6.953125 -0.5 C 7.210938 -0.320312 7.5625 -0.234375 8 -0.234375 L 8.8125 -0.234375 L 8.8125 0 Z M 0.234375 0 "/></g></g></g><g fill="#416637" fill-opacity="1"><g transform="translate(131.257603, 260.812804)"><g><path d="M 7.578125 0.234375 C 5.359375 0.234375 3.695312 -0.328125 2.59375 -1.453125 C 1.5 -2.585938 0.953125 -4.175781 0.953125 -6.21875 C 0.953125 -8.414062 1.492188 -10.078125 2.578125 -11.203125 C 3.660156 -12.328125 5.203125 -12.890625 7.203125 -12.890625 C 9.046875 -12.890625 10.492188 -12.410156 11.546875 -11.453125 C 12.597656 -10.492188 13.125 -9.085938 13.125 -7.234375 L 13.125 -6.671875 L 5.515625 -6.671875 C 5.535156 -4.316406 5.796875 -2.628906 6.296875 -1.609375 C 6.796875 -0.597656 7.617188 -0.09375 8.765625 -0.09375 C 9.660156 -0.09375 10.316406 -0.398438 10.734375 -1.015625 C 11.160156 -1.628906 11.390625 -2.625 11.421875 -4 C 11.804688 -3.925781 12.109375 -3.78125 12.328125 -3.5625 C 12.554688 -3.34375 12.671875 -3.035156 12.671875 -2.640625 C 12.671875 -1.785156 12.210938 -1.09375 11.296875 -0.5625 C 10.390625 -0.03125 9.148438 0.234375 7.578125 0.234375 Z M 5.515625 -6.90625 L 8.65625 -6.90625 C 8.65625 -8.351562 8.609375 -9.5 8.515625 -10.34375 C 8.429688 -11.1875 8.285156 -11.78125 8.078125 -12.125 C 7.867188 -12.476562 7.570312 -12.65625 7.1875 -12.65625 C 6.8125 -12.65625 6.5 -12.476562 6.25 -12.125 C 6.007812 -11.78125 5.828125 -11.1875 5.703125 -10.34375 C 5.578125 -9.5 5.515625 -8.351562 5.515625 -6.90625 Z M 5.515625 -6.90625 "/></g></g></g><g fill="#416637" fill-opacity="1"><g transform="translate(145.588944, 260.812804)"><g><path d="M 7.578125 0.234375 C 5.359375 0.234375 3.695312 -0.328125 2.59375 -1.453125 C 1.5 -2.585938 0.953125 -4.175781 0.953125 -6.21875 C 0.953125 -8.414062 1.492188 -10.078125 2.578125 -11.203125 C 3.660156 -12.328125 5.203125 -12.890625 7.203125 -12.890625 C 9.046875 -12.890625 10.492188 -12.410156 11.546875 -11.453125 C 12.597656 -10.492188 13.125 -9.085938 13.125 -7.234375 L 13.125 -6.671875 L 5.515625 -6.671875 C 5.535156 -4.316406 5.796875 -2.628906 6.296875 -1.609375 C 6.796875 -0.597656 7.617188 -0.09375 8.765625 -0.09375 C 9.660156 -0.09375 10.316406 -0.398438 10.734375 -1.015625 C 11.160156 -1.628906 11.390625 -2.625 11.421875 -4 C 11.804688 -3.925781 12.109375 -3.78125 12.328125 -3.5625 C 12.554688 -3.34375 12.671875 -3.035156 12.671875 -2.640625 C 12.671875 -1.785156 12.210938 -1.09375 11.296875 -0.5625 C 10.390625 -0.03125 9.148438 0.234375 7.578125 0.234375 Z M 5.515625 -6.90625 L 8.65625 -6.90625 C 8.65625 -8.351562 8.609375 -9.5 8.515625 -10.34375 C 8.429688 -11.1875 8.285156 -11.78125 8.078125 -12.125 C 7.867188 -12.476562 7.570312 -12.65625 7.1875 -12.65625 C 6.8125 -12.65625 6.5 -12.476562 6.25 -12.125 C 6.007812 -11.78125 5.828125 -11.1875 5.703125 -10.34375 C 5.578125 -9.5 5.515625 -8.351562 5.515625 -6.90625 Z M 5.515625 -6.90625 "/></g></g></g><g fill="#416637" fill-opacity="1"><g transform="translate(159.920285, 260.812804)"><g><path d="M 0.328125 0 L 0.328125 -0.234375 L 0.421875 -0.234375 C 0.953125 -0.234375 1.351562 -0.328125 1.625 -0.515625 C 1.894531 -0.703125 2.03125 -1.128906 2.03125 -1.796875 L 2.03125 -10.828125 C 2.03125 -11.460938 1.910156 -11.863281 1.671875 -12.03125 C 1.429688 -12.207031 1.050781 -12.296875 0.53125 -12.296875 L 0.4375 -12.296875 L 0.4375 -12.53125 L 6.546875 -12.53125 L 6.546875 -10.265625 L 6.59375 -10.265625 C 6.800781 -11.128906 7.1875 -11.78125 7.75 -12.21875 C 8.320312 -12.664062 9.125 -12.890625 10.15625 -12.890625 C 11.394531 -12.890625 12.332031 -12.535156 12.96875 -11.828125 C 13.613281 -11.117188 13.9375 -9.984375 13.9375 -8.421875 L 13.9375 -1.875 C 13.9375 -1.15625 14.035156 -0.703125 14.234375 -0.515625 C 14.429688 -0.328125 14.796875 -0.234375 15.328125 -0.234375 L 15.421875 -0.234375 L 15.421875 0 L 9.40625 0 L 9.40625 -8.84375 C 9.40625 -9.84375 9.316406 -10.570312 9.140625 -11.03125 C 8.972656 -11.5 8.640625 -11.734375 8.140625 -11.734375 C 7.734375 -11.734375 7.421875 -11.550781 7.203125 -11.1875 C 6.984375 -10.820312 6.828125 -10.351562 6.734375 -9.78125 C 6.640625 -9.21875 6.59375 -8.625 6.59375 -8 L 6.59375 -1.734375 C 6.59375 -1.109375 6.707031 -0.703125 6.9375 -0.515625 C 7.175781 -0.328125 7.550781 -0.234375 8.0625 -0.234375 L 8.15625 -0.234375 L 8.15625 0 Z M 0.328125 0 "/></g></g></g><g fill="#416637" fill-opacity="1"><g transform="translate(176.238838, 260.812804)"><g><path d="M 0.296875 0 L 0.296875 -0.234375 L 0.984375 -0.234375 C 1.109375 -0.234375 1.289062 -0.265625 1.53125 -0.328125 C 1.769531 -0.390625 1.984375 -0.519531 2.171875 -0.71875 C 2.359375 -0.925781 2.453125 -1.234375 2.453125 -1.640625 L 2.453125 -12.296875 L 0.390625 -12.296875 L 0.390625 -12.53125 L 2.453125 -12.53125 L 2.453125 -13.171875 C 2.453125 -14.671875 2.84375 -15.84375 3.625 -16.6875 C 4.40625 -17.539062 5.753906 -17.96875 7.671875 -17.96875 C 8.828125 -17.96875 9.703125 -17.875 10.296875 -17.6875 C 10.890625 -17.5 11.285156 -17.269531 11.484375 -17 C 11.679688 -16.738281 11.78125 -16.472656 11.78125 -16.203125 C 11.78125 -15.890625 11.703125 -15.59375 11.546875 -15.3125 C 11.398438 -15.039062 11.109375 -14.816406 10.671875 -14.640625 C 10.234375 -14.472656 9.59375 -14.390625 8.75 -14.390625 C 8.75 -15.660156 8.6875 -16.535156 8.5625 -17.015625 C 8.4375 -17.492188 8.203125 -17.734375 7.859375 -17.734375 C 7.546875 -17.734375 7.320312 -17.535156 7.1875 -17.140625 C 7.0625 -16.753906 7 -16.054688 7 -15.046875 L 7 -12.53125 L 10.171875 -12.53125 L 10.171875 -12.296875 L 7 -12.296875 L 7 -1.640625 C 7 -1.234375 7.082031 -0.925781 7.25 -0.71875 C 7.425781 -0.519531 7.625 -0.390625 7.84375 -0.328125 C 8.070312 -0.265625 8.28125 -0.234375 8.46875 -0.234375 L 9.734375 -0.234375 L 9.734375 0 Z M 0.296875 0 "/></g></g></g><g fill="#416637" fill-opacity="1"><g transform="translate(186.759437, 260.812804)"><g><path d="M 4.1875 -14.484375 C 3.582031 -14.484375 3.078125 -14.640625 2.671875 -14.953125 C 2.265625 -15.273438 2.0625 -15.734375 2.0625 -16.328125 C 2.0625 -16.953125 2.265625 -17.414062 2.671875 -17.71875 C 3.078125 -18.019531 3.582031 -18.171875 4.1875 -18.171875 C 4.757812 -18.171875 5.257812 -18.019531 5.6875 -17.71875 C 6.125 -17.414062 6.34375 -16.953125 6.34375 -16.328125 C 6.34375 -15.734375 6.125 -15.273438 5.6875 -14.953125 C 5.257812 -14.640625 4.757812 -14.484375 4.1875 -14.484375 Z M 0.28125 0 L 0.28125 -0.234375 L 0.5625 -0.234375 C 1 -0.234375 1.351562 -0.359375 1.625 -0.609375 C 1.894531 -0.859375 2.03125 -1.3125 2.03125 -1.96875 L 2.03125 -10.765625 C 2.03125 -11.335938 1.890625 -11.734375 1.609375 -11.953125 C 1.328125 -12.179688 0.976562 -12.296875 0.5625 -12.296875 L 0.109375 -12.296875 L 0.109375 -12.53125 L 6.578125 -12.53125 L 6.578125 -1.875 C 6.578125 -1.25 6.710938 -0.816406 6.984375 -0.578125 C 7.253906 -0.347656 7.609375 -0.234375 8.046875 -0.234375 L 8.296875 -0.234375 L 8.296875 0 Z M 0.28125 0 "/></g></g></g><g fill="#416637" fill-opacity="1"><g transform="translate(195.900679, 260.812804)"><g><path d="M 5.59375 5.453125 C 3.75 5.453125 2.300781 5.222656 1.25 4.765625 C 0.195312 4.316406 -0.328125 3.671875 -0.328125 2.828125 C -0.328125 2.160156 0.046875 1.640625 0.796875 1.265625 C 1.546875 0.890625 2.707031 0.671875 4.28125 0.609375 C 3.175781 0.515625 2.347656 0.210938 1.796875 -0.296875 C 1.253906 -0.816406 0.984375 -1.390625 0.984375 -2.015625 C 0.984375 -2.609375 1.21875 -3.140625 1.6875 -3.609375 C 2.164062 -4.085938 2.867188 -4.441406 3.796875 -4.671875 C 2.796875 -4.953125 2.019531 -5.4375 1.46875 -6.125 C 0.925781 -6.8125 0.65625 -7.675781 0.65625 -8.71875 C 0.65625 -10.019531 1.09375 -11.039062 1.96875 -11.78125 C 2.84375 -12.519531 4.226562 -12.890625 6.125 -12.890625 C 6.8125 -12.890625 7.441406 -12.8125 8.015625 -12.65625 C 8.597656 -12.507812 9.109375 -12.304688 9.546875 -12.046875 C 9.765625 -12.554688 10.070312 -12.960938 10.46875 -13.265625 C 10.863281 -13.578125 11.34375 -13.734375 11.90625 -13.734375 C 12.414062 -13.734375 12.816406 -13.59375 13.109375 -13.3125 C 13.398438 -13.03125 13.546875 -12.660156 13.546875 -12.203125 C 13.546875 -11.722656 13.378906 -11.351562 13.046875 -11.09375 C 12.722656 -10.84375 12.28125 -10.71875 11.71875 -10.71875 C 11.71875 -11.1875 11.617188 -11.5625 11.421875 -11.84375 C 11.234375 -12.132812 10.984375 -12.28125 10.671875 -12.28125 C 10.390625 -12.28125 10.09375 -12.144531 9.78125 -11.875 C 10.945312 -11.050781 11.53125 -9.914062 11.53125 -8.46875 C 11.53125 -7.28125 11.097656 -6.300781 10.234375 -5.53125 C 9.367188 -4.757812 8 -4.375 6.125 -4.375 C 5.75 -4.375 5.390625 -4.390625 5.046875 -4.421875 C 4.703125 -4.460938 4.375 -4.523438 4.0625 -4.609375 C 3.769531 -4.398438 3.625 -4.128906 3.625 -3.796875 C 3.625 -3.546875 3.738281 -3.3125 3.96875 -3.09375 C 4.207031 -2.882812 4.691406 -2.78125 5.421875 -2.78125 L 7.859375 -2.78125 C 11.160156 -2.78125 12.8125 -1.566406 12.8125 0.859375 C 12.8125 2.285156 12.21875 3.40625 11.03125 4.21875 C 9.851562 5.039062 8.039062 5.453125 5.59375 5.453125 Z M 6.078125 -4.609375 C 6.628906 -4.609375 7.015625 -4.894531 7.234375 -5.46875 C 7.460938 -6.050781 7.578125 -7.054688 7.578125 -8.484375 C 7.578125 -10.035156 7.460938 -11.117188 7.234375 -11.734375 C 7.015625 -12.347656 6.628906 -12.65625 6.078125 -12.65625 C 5.515625 -12.65625 5.117188 -12.34375 4.890625 -11.71875 C 4.671875 -11.09375 4.5625 -10.007812 4.5625 -8.46875 C 4.5625 -7.03125 4.671875 -6.023438 4.890625 -5.453125 C 5.117188 -4.890625 5.515625 -4.609375 6.078125 -4.609375 Z M 6.125 5.21875 C 7.207031 5.21875 8.035156 5 8.609375 4.5625 C 9.179688 4.125 9.46875 3.484375 9.46875 2.640625 C 9.46875 1.441406 8.769531 0.84375 7.375 0.84375 L 4.8125 0.84375 C 4.269531 0.84375 3.847656 1.03125 3.546875 1.40625 C 3.242188 1.78125 3.09375 2.269531 3.09375 2.875 C 3.09375 3.632812 3.351562 4.210938 3.875 4.609375 C 4.394531 5.015625 5.144531 5.21875 6.125 5.21875 Z M 6.125 5.21875 "/></g></g></g><g fill="#416637" fill-opacity="1"><g transform="translate(209.717691, 260.812804)"><g><path d="M 0.484375 0 L 0.484375 -0.234375 L 0.578125 -0.234375 C 1.109375 -0.234375 1.507812 -0.328125 1.78125 -0.515625 C 2.0625 -0.703125 2.203125 -1.128906 2.203125 -1.796875 L 2.203125 -16.0625 C 2.203125 -16.707031 2.078125 -17.113281 1.828125 -17.28125 C 1.585938 -17.457031 1.210938 -17.546875 0.703125 -17.546875 L 0.375 -17.546875 L 0.375 -17.78125 L 6.765625 -17.78125 L 6.765625 -13.359375 C 6.765625 -12.804688 6.757812 -12.289062 6.75 -11.8125 C 6.738281 -11.332031 6.726562 -10.816406 6.71875 -10.265625 L 6.765625 -10.265625 C 6.960938 -11.128906 7.34375 -11.78125 7.90625 -12.21875 C 8.476562 -12.664062 9.28125 -12.890625 10.3125 -12.890625 C 11.5625 -12.890625 12.503906 -12.535156 13.140625 -11.828125 C 13.785156 -11.117188 14.109375 -9.984375 14.109375 -8.421875 L 14.109375 -1.875 C 14.109375 -1.15625 14.203125 -0.703125 14.390625 -0.515625 C 14.585938 -0.328125 14.953125 -0.234375 15.484375 -0.234375 L 15.578125 -0.234375 L 15.578125 0 L 9.5625 0 L 9.5625 -8.84375 C 9.5625 -9.84375 9.472656 -10.570312 9.296875 -11.03125 C 9.128906 -11.5 8.796875 -11.734375 8.296875 -11.734375 C 7.910156 -11.734375 7.601562 -11.550781 7.375 -11.1875 C 7.15625 -10.820312 7 -10.351562 6.90625 -9.78125 C 6.8125 -9.21875 6.765625 -8.625 6.765625 -8 L 6.765625 -1.734375 C 6.765625 -1.109375 6.878906 -0.703125 7.109375 -0.515625 C 7.347656 -0.328125 7.722656 -0.234375 8.234375 -0.234375 L 8.328125 -0.234375 L 8.328125 0 Z M 0.484375 0 "/></g></g></g><g fill="#416637" fill-opacity="1"><g transform="translate(226.223275, 260.812804)"><g><path d="M 6.171875 0.234375 C 4.972656 0.234375 4.019531 -0.046875 3.3125 -0.609375 C 2.601562 -1.171875 2.25 -2.140625 2.25 -3.515625 L 2.25 -12.296875 L 0.515625 -12.296875 L 0.515625 -12.53125 C 1.992188 -12.53125 3.203125 -12.75 4.140625 -13.1875 C 5.203125 -13.675781 6.015625 -14.4375 6.578125 -15.46875 L 6.8125 -15.46875 L 6.8125 -12.53125 L 9.75 -12.53125 L 9.75 -12.296875 L 6.8125 -12.296875 L 6.8125 -2.34375 C 6.8125 -1.65625 6.945312 -1.148438 7.21875 -0.828125 C 7.488281 -0.503906 7.875 -0.34375 8.375 -0.34375 C 8.820312 -0.34375 9.351562 -0.476562 9.96875 -0.75 L 9.96875 -0.515625 C 9.6875 -0.367188 9.222656 -0.207031 8.578125 -0.03125 C 7.941406 0.144531 7.140625 0.234375 6.171875 0.234375 Z M 6.171875 0.234375 "/></g></g></g><g fill="#416637" fill-opacity="1"><g transform="translate(236.954284, 260.812804)"><g><path d="M 7.578125 0.234375 C 5.359375 0.234375 3.695312 -0.328125 2.59375 -1.453125 C 1.5 -2.585938 0.953125 -4.175781 0.953125 -6.21875 C 0.953125 -8.414062 1.492188 -10.078125 2.578125 -11.203125 C 3.660156 -12.328125 5.203125 -12.890625 7.203125 -12.890625 C 9.046875 -12.890625 10.492188 -12.410156 11.546875 -11.453125 C 12.597656 -10.492188 13.125 -9.085938 13.125 -7.234375 L 13.125 -6.671875 L 5.515625 -6.671875 C 5.535156 -4.316406 5.796875 -2.628906 6.296875 -1.609375 C 6.796875 -0.597656 7.617188 -0.09375 8.765625 -0.09375 C 9.660156 -0.09375 10.316406 -0.398438 10.734375 -1.015625 C 11.160156 -1.628906 11.390625 -2.625 11.421875 -4 C 11.804688 -3.925781 12.109375 -3.78125 12.328125 -3.5625 C 12.554688 -3.34375 12.671875 -3.035156 12.671875 -2.640625 C 12.671875 -1.785156 12.210938 -1.09375 11.296875 -0.5625 C 10.390625 -0.03125 9.148438 0.234375 7.578125 0.234375 Z M 5.515625 -6.90625 L 8.65625 -6.90625 C 8.65625 -8.351562 8.609375 -9.5 8.515625 -10.34375 C 8.429688 -11.1875 8.285156 -11.78125 8.078125 -12.125 C 7.867188 -12.476562 7.570312 -12.65625 7.1875 -12.65625 C 6.8125 -12.65625 6.5 -12.476562 6.25 -12.125 C 6.007812 -11.78125 5.828125 -11.1875 5.703125 -10.34375 C 5.578125 -9.5 5.515625 -8.351562 5.515625 -6.90625 Z M 5.515625 -6.90625 "/></g></g></g><g fill="#416637" fill-opacity="1"><g transform="translate(251.285628, 260.812804)"><g><path d="M 0.234375 0 L 0.234375 -0.234375 L 0.34375 -0.234375 C 0.875 -0.234375 1.285156 -0.328125 1.578125 -0.515625 C 1.867188 -0.710938 2.015625 -1.179688 2.015625 -1.921875 L 2.015625 -10.71875 C 2.015625 -11.394531 1.894531 -11.828125 1.65625 -12.015625 C 1.425781 -12.203125 1.050781 -12.296875 0.53125 -12.296875 L 0.4375 -12.296875 L 0.4375 -12.53125 L 6.546875 -12.53125 L 6.546875 -10.171875 L 6.59375 -10.171875 C 6.832031 -11.046875 7.25 -11.707031 7.84375 -12.15625 C 8.445312 -12.613281 9.1875 -12.84375 10.0625 -12.84375 C 10.945312 -12.84375 11.617188 -12.628906 12.078125 -12.203125 C 12.535156 -11.773438 12.765625 -11.222656 12.765625 -10.546875 C 12.765625 -9.753906 12.453125 -9.144531 11.828125 -8.71875 C 11.210938 -8.300781 10.363281 -8.09375 9.28125 -8.09375 C 9.28125 -9.375 9.195312 -10.265625 9.03125 -10.765625 C 8.875 -11.273438 8.578125 -11.53125 8.140625 -11.53125 C 7.597656 -11.53125 7.203125 -11.179688 6.953125 -10.484375 C 6.703125 -9.796875 6.578125 -8.78125 6.578125 -7.4375 L 6.578125 -1.796875 C 6.578125 -1.109375 6.703125 -0.675781 6.953125 -0.5 C 7.210938 -0.320312 7.5625 -0.234375 8 -0.234375 L 8.8125 -0.234375 L 8.8125 0 Z M 0.234375 0 "/></g></g></g><g fill="#416637" fill-opacity="1"><g transform="translate(264.751958, 260.812804)"><g><path d="M 5.453125 0.234375 C 3.703125 0.234375 2.453125 -0.0351562 1.703125 -0.578125 C 0.953125 -1.128906 0.578125 -1.785156 0.578125 -2.546875 C 0.578125 -3.222656 0.816406 -3.695312 1.296875 -3.96875 C 1.773438 -4.25 2.359375 -4.390625 3.046875 -4.390625 C 3.046875 -2.816406 3.25 -1.691406 3.65625 -1.015625 C 4.070312 -0.335938 4.765625 0 5.734375 0 C 6.515625 0 7.128906 -0.1875 7.578125 -0.5625 C 8.023438 -0.9375 8.25 -1.441406 8.25 -2.078125 C 8.25 -2.597656 8.109375 -3.007812 7.828125 -3.3125 C 7.554688 -3.613281 7.171875 -3.859375 6.671875 -4.046875 C 6.179688 -4.242188 5.617188 -4.429688 4.984375 -4.609375 C 3.566406 -5.015625 2.5 -5.523438 1.78125 -6.140625 C 1.070312 -6.753906 0.71875 -7.65625 0.71875 -8.84375 C 0.71875 -10.226562 1.222656 -11.242188 2.234375 -11.890625 C 3.242188 -12.535156 4.570312 -12.859375 6.21875 -12.859375 C 7.28125 -12.859375 8.140625 -12.75 8.796875 -12.53125 C 9.453125 -12.3125 9.921875 -12.023438 10.203125 -11.671875 C 10.492188 -11.316406 10.640625 -10.925781 10.640625 -10.5 C 10.640625 -10.019531 10.4375 -9.632812 10.03125 -9.34375 C 9.625 -9.050781 8.976562 -8.90625 8.09375 -8.90625 C 8.09375 -10.300781 7.925781 -11.269531 7.59375 -11.8125 C 7.269531 -12.351562 6.695312 -12.625 5.875 -12.625 C 5.164062 -12.625 4.625 -12.453125 4.25 -12.109375 C 3.882812 -11.773438 3.703125 -11.300781 3.703125 -10.6875 C 3.703125 -10.207031 3.820312 -9.820312 4.0625 -9.53125 C 4.300781 -9.238281 4.65625 -8.992188 5.125 -8.796875 C 5.601562 -8.609375 6.210938 -8.40625 6.953125 -8.1875 C 7.785156 -7.9375 8.519531 -7.644531 9.15625 -7.3125 C 9.789062 -6.988281 10.285156 -6.566406 10.640625 -6.046875 C 11.003906 -5.523438 11.1875 -4.84375 11.1875 -4 C 11.1875 -2.75 10.738281 -1.726562 9.84375 -0.9375 C 8.957031 -0.15625 7.492188 0.234375 5.453125 0.234375 Z M 5.453125 0.234375 "/></g></g></g></svg>